solid OpenSCAD_Model
  facet normal 0 0 1
    outer loop
      vertex -11 51.4 2.6
      vertex -48.4 51.4 2.6
      vertex -11 48.1 2.6
    endloop
  endfacet
  facet normal 0 0 1
    outer loop
      vertex 48.4 51.4 2.6
      vertex 51.4 48.4 2.6
      vertex 51.3743 48.7916 2.6
    endloop
  endfacet
  facet normal 0 0 1
    outer loop
      vertex 51.4 48.4 2.6
      vertex 11 48.1 2.6
      vertex 51.4 -48.4 2.6
    endloop
  endfacet
  facet normal 0 0 1
    outer loop
      vertex 48.4 51.4 2.6
      vertex 51.3743 48.7916 2.6
      vertex 51.2978 49.1765 2.6
    endloop
  endfacet
  facet normal 0 -0 1
    outer loop
      vertex 48.4 -51.4 2.6
      vertex 51.4 -48.4 2.6
      vertex 11 48.1 2.6
    endloop
  endfacet
  facet normal 0 0 1
    outer loop
      vertex 48.4 51.4 2.6
      vertex 51.2978 49.1765 2.6
      vertex 51.1716 49.548 2.6
    endloop
  endfacet
  facet normal 0 0 1
    outer loop
      vertex 51.4 -48.4 2.6
      vertex 48.4 -51.4 2.6
      vertex 51.3743 -48.7916 2.6
    endloop
  endfacet
  facet normal 0 0 1
    outer loop
      vertex 48.4 51.4 2.6
      vertex 51.1716 49.548 2.6
      vertex 50.9981 49.9 2.6
    endloop
  endfacet
  facet normal 0 0 1
    outer loop
      vertex 51.3743 -48.7916 2.6
      vertex 48.4 -51.4 2.6
      vertex 51.2978 -49.1765 2.6
    endloop
  endfacet
  facet normal 0 0 1
    outer loop
      vertex 48.4 51.4 2.6
      vertex 50.9981 49.9 2.6
      vertex 50.7801 50.2263 2.6
    endloop
  endfacet
  facet normal 0 0 1
    outer loop
      vertex 51.2978 -49.1765 2.6
      vertex 48.4 -51.4 2.6
      vertex 51.1716 -49.548 2.6
    endloop
  endfacet
  facet normal 0 0 1
    outer loop
      vertex 48.4 51.4 2.6
      vertex 50.7801 50.2263 2.6
      vertex 50.5213 50.5213 2.6
    endloop
  endfacet
  facet normal 0 0 1
    outer loop
      vertex 51.1716 -49.548 2.6
      vertex 48.4 -51.4 2.6
      vertex 50.9981 -49.9 2.6
    endloop
  endfacet
  facet normal 0 0 1
    outer loop
      vertex 48.4 51.4 2.6
      vertex 50.5213 50.5213 2.6
      vertex 50.2263 50.7801 2.6
    endloop
  endfacet
  facet normal 0 0 1
    outer loop
      vertex 50.9981 -49.9 2.6
      vertex 48.4 -51.4 2.6
      vertex 50.7801 -50.2263 2.6
    endloop
  endfacet
  facet normal 0 0 1
    outer loop
      vertex 48.4 51.4 2.6
      vertex 50.2263 50.7801 2.6
      vertex 49.9 50.9981 2.6
    endloop
  endfacet
  facet normal 0 0 1
    outer loop
      vertex 51.4 48.4 2.6
      vertex 48.4 51.4 2.6
      vertex 11 48.1 2.6
    endloop
  endfacet
  facet normal 0 0 1
    outer loop
      vertex 48.4 51.4 2.6
      vertex 49.9 50.9981 2.6
      vertex 49.548 51.1716 2.6
    endloop
  endfacet
  facet normal 0 0 1
    outer loop
      vertex 50.7801 -50.2263 2.6
      vertex 48.4 -51.4 2.6
      vertex 50.5213 -50.5213 2.6
    endloop
  endfacet
  facet normal 0 0 1
    outer loop
      vertex 48.4 51.4 2.6
      vertex 49.548 51.1716 2.6
      vertex 49.1765 51.2978 2.6
    endloop
  endfacet
  facet normal 0 0 1
    outer loop
      vertex 50.2263 -50.7801 2.6
      vertex 48.4 -51.4 2.6
      vertex 49.9 -50.9981 2.6
    endloop
  endfacet
  facet normal 0 0 1
    outer loop
      vertex 48.4 51.4 2.6
      vertex 49.1765 51.2978 2.6
      vertex 48.7916 51.3743 2.6
    endloop
  endfacet
  facet normal 0 0 1
    outer loop
      vertex 49.9 -50.9981 2.6
      vertex 48.4 -51.4 2.6
      vertex 49.548 -51.1716 2.6
    endloop
  endfacet
  facet normal 0 0 1
    outer loop
      vertex 49.548 -51.1716 2.6
      vertex 48.4 -51.4 2.6
      vertex 49.1765 -51.2978 2.6
    endloop
  endfacet
  facet normal 0 0 1
    outer loop
      vertex 49.1765 -51.2978 2.6
      vertex 48.4 -51.4 2.6
      vertex 48.7916 -51.3743 2.6
    endloop
  endfacet
  facet normal 0 0 1
    outer loop
      vertex 11 48.1 2.6
      vertex 48.4 51.4 2.6
      vertex 11 51.4 2.6
    endloop
  endfacet
  facet normal 0 0 1
    outer loop
      vertex 50.5213 -50.5213 2.6
      vertex 48.4 -51.4 2.6
      vertex 50.2263 -50.7801 2.6
    endloop
  endfacet
  facet normal -0 0 1
    outer loop
      vertex -11 48.1 2.6
      vertex 48.4 -51.4 2.6
      vertex 11 48.1 2.6
    endloop
  endfacet
  facet normal -0 0 1
    outer loop
      vertex -51.4 48.4 2.6
      vertex -11 48.1 2.6
      vertex -48.4 51.4 2.6
    endloop
  endfacet
  facet normal 0 0 1
    outer loop
      vertex -11 48.1 2.6
      vertex -48.4 -51.4 2.6
      vertex 48.4 -51.4 2.6
    endloop
  endfacet
  facet normal 0 0 1
    outer loop
      vertex -51.4 48.4 2.6
      vertex -48.4 51.4 2.6
      vertex -48.7916 51.3743 2.6
    endloop
  endfacet
  facet normal 0 0 1
    outer loop
      vertex -51.4 -48.4 2.6
      vertex -11 48.1 2.6
      vertex -51.4 48.4 2.6
    endloop
  endfacet
  facet normal 0 0 1
    outer loop
      vertex -51.4 48.4 2.6
      vertex -48.7916 51.3743 2.6
      vertex -49.1765 51.2978 2.6
    endloop
  endfacet
  facet normal 0 0 1
    outer loop
      vertex -11 48.1 2.6
      vertex -51.4 -48.4 2.6
      vertex -48.4 -51.4 2.6
    endloop
  endfacet
  facet normal 0 0 1
    outer loop
      vertex -51.4 48.4 2.6
      vertex -49.1765 51.2978 2.6
      vertex -49.548 51.1716 2.6
    endloop
  endfacet
  facet normal 0 0 1
    outer loop
      vertex -48.4 -51.4 2.6
      vertex -51.4 -48.4 2.6
      vertex -48.7916 -51.3743 2.6
    endloop
  endfacet
  facet normal 0 0 1
    outer loop
      vertex -51.4 48.4 2.6
      vertex -49.548 51.1716 2.6
      vertex -49.9 50.9981 2.6
    endloop
  endfacet
  facet normal 0 0 1
    outer loop
      vertex -48.7916 -51.3743 2.6
      vertex -51.4 -48.4 2.6
      vertex -49.1765 -51.2978 2.6
    endloop
  endfacet
  facet normal 0 0 1
    outer loop
      vertex -51.4 48.4 2.6
      vertex -49.9 50.9981 2.6
      vertex -50.2263 50.7801 2.6
    endloop
  endfacet
  facet normal 0 0 1
    outer loop
      vertex -49.1765 -51.2978 2.6
      vertex -51.4 -48.4 2.6
      vertex -49.548 -51.1716 2.6
    endloop
  endfacet
  facet normal 0 0 1
    outer loop
      vertex -51.4 48.4 2.6
      vertex -50.2263 50.7801 2.6
      vertex -50.5213 50.5213 2.6
    endloop
  endfacet
  facet normal 0 0 1
    outer loop
      vertex -49.548 -51.1716 2.6
      vertex -51.4 -48.4 2.6
      vertex -49.9 -50.9981 2.6
    endloop
  endfacet
  facet normal 0 0 1
    outer loop
      vertex -51.4 48.4 2.6
      vertex -50.5213 50.5213 2.6
      vertex -50.7801 50.2263 2.6
    endloop
  endfacet
  facet normal 0 0 1
    outer loop
      vertex -49.9 -50.9981 2.6
      vertex -51.4 -48.4 2.6
      vertex -50.2263 -50.7801 2.6
    endloop
  endfacet
  facet normal 0 0 1
    outer loop
      vertex -51.4 48.4 2.6
      vertex -50.7801 50.2263 2.6
      vertex -50.9981 49.9 2.6
    endloop
  endfacet
  facet normal 0 0 1
    outer loop
      vertex -50.2263 -50.7801 2.6
      vertex -51.4 -48.4 2.6
      vertex -50.5213 -50.5213 2.6
    endloop
  endfacet
  facet normal 0 0 1
    outer loop
      vertex -51.4 48.4 2.6
      vertex -50.9981 49.9 2.6
      vertex -51.1716 49.548 2.6
    endloop
  endfacet
  facet normal 0 0 1
    outer loop
      vertex -50.5213 -50.5213 2.6
      vertex -51.4 -48.4 2.6
      vertex -50.7801 -50.2263 2.6
    endloop
  endfacet
  facet normal 0 0 1
    outer loop
      vertex -51.4 48.4 2.6
      vertex -51.1716 49.548 2.6
      vertex -51.2978 49.1765 2.6
    endloop
  endfacet
  facet normal 0 0 1
    outer loop
      vertex -50.7801 -50.2263 2.6
      vertex -51.4 -48.4 2.6
      vertex -50.9981 -49.9 2.6
    endloop
  endfacet
  facet normal 0 0 1
    outer loop
      vertex -51.4 48.4 2.6
      vertex -51.2978 49.1765 2.6
      vertex -51.3743 48.7916 2.6
    endloop
  endfacet
  facet normal 0 0 1
    outer loop
      vertex -50.9981 -49.9 2.6
      vertex -51.4 -48.4 2.6
      vertex -51.1716 -49.548 2.6
    endloop
  endfacet
  facet normal 0 0 1
    outer loop
      vertex -51.1716 -49.548 2.6
      vertex -51.4 -48.4 2.6
      vertex -51.2978 -49.1765 2.6
    endloop
  endfacet
  facet normal 0 0 1
    outer loop
      vertex -51.2978 -49.1765 2.6
      vertex -51.4 -48.4 2.6
      vertex -51.3743 -48.7916 2.6
    endloop
  endfacet
  facet normal 0.555523 0.831501 -0
    outer loop
      vertex 50.2263 50.7801 0
      vertex 49.9 50.9981 2.6
      vertex 50.2263 50.7801 2.6
    endloop
  endfacet
  facet normal 0.555523 0.831501 0
    outer loop
      vertex 49.9 50.9981 2.6
      vertex 50.2263 50.7801 0
      vertex 49.9 50.9981 0
    endloop
  endfacet
  facet normal 0 -1 0
    outer loop
      vertex -48.4 -51.4 0
      vertex 48.4 -51.4 2.6
      vertex -48.4 -51.4 2.6
    endloop
  endfacet
  facet normal 0 -1 -0
    outer loop
      vertex 48.4 -51.4 2.6
      vertex -48.4 -51.4 0
      vertex 48.4 -51.4 0
    endloop
  endfacet
  facet normal 0.997853 0.0654873 0
    outer loop
      vertex 51.4 48.4 2.6
      vertex 51.3743 48.7916 0
      vertex 51.3743 48.7916 2.6
    endloop
  endfacet
  facet normal 0.997853 0.0654873 0
    outer loop
      vertex 51.3743 48.7916 0
      vertex 51.4 48.4 2.6
      vertex 51.4 48.4 0
    endloop
  endfacet
  facet normal -0.44211 0.896961 0
    outer loop
      vertex -49.548 51.1716 0
      vertex -49.9 50.9981 2.6
      vertex -49.548 51.1716 2.6
    endloop
  endfacet
  facet normal -0.44211 0.896961 0
    outer loop
      vertex -49.9 50.9981 2.6
      vertex -49.548 51.1716 0
      vertex -49.9 50.9981 0
    endloop
  endfacet
  facet normal -0.0654873 0.997853 0
    outer loop
      vertex -48.4 51.4 0
      vertex -48.7916 51.3743 2.6
      vertex -48.4 51.4 2.6
    endloop
  endfacet
  facet normal -0.0654873 0.997853 0
    outer loop
      vertex -48.7916 51.3743 2.6
      vertex -48.4 51.4 0
      vertex -48.7916 51.3743 0
    endloop
  endfacet
  facet normal -0.980815 0.19494 0
    outer loop
      vertex -51.3743 48.7916 0
      vertex -51.2978 49.1765 2.6
      vertex -51.2978 49.1765 0
    endloop
  endfacet
  facet normal -0.980815 0.19494 0
    outer loop
      vertex -51.2978 49.1765 2.6
      vertex -51.3743 48.7916 0
      vertex -51.3743 48.7916 2.6
    endloop
  endfacet
  facet normal 0.44211 0.896961 -0
    outer loop
      vertex 49.9 50.9981 0
      vertex 49.548 51.1716 2.6
      vertex 49.9 50.9981 2.6
    endloop
  endfacet
  facet normal 0.44211 0.896961 0
    outer loop
      vertex 49.548 51.1716 2.6
      vertex 49.9 50.9981 0
      vertex 49.548 51.1716 0
    endloop
  endfacet
  facet normal 0.751724 -0.659478 0
    outer loop
      vertex 50.5213 -50.5213 2.6
      vertex 50.7801 -50.2263 0
      vertex 50.7801 -50.2263 2.6
    endloop
  endfacet
  facet normal 0.751724 -0.659478 0
    outer loop
      vertex 50.7801 -50.2263 0
      vertex 50.5213 -50.5213 2.6
      vertex 50.5213 -50.5213 0
    endloop
  endfacet
  facet normal 1 -0 0
    outer loop
      vertex 51.4 -48.4 2.6
      vertex 51.4 48.4 0
      vertex 51.4 48.4 2.6
    endloop
  endfacet
  facet normal 1 0 0
    outer loop
      vertex 51.4 48.4 0
      vertex 51.4 -48.4 2.6
      vertex 51.4 -48.4 0
    endloop
  endfacet
  facet normal -0.896961 -0.44211 0
    outer loop
      vertex -50.9981 -49.9 0
      vertex -51.1716 -49.548 2.6
      vertex -51.1716 -49.548 0
    endloop
  endfacet
  facet normal -0.896961 -0.44211 0
    outer loop
      vertex -51.1716 -49.548 2.6
      vertex -50.9981 -49.9 0
      vertex -50.9981 -49.9 2.6
    endloop
  endfacet
  facet normal 0.980815 0.19494 0
    outer loop
      vertex 51.3743 48.7916 2.6
      vertex 51.2978 49.1765 0
      vertex 51.2978 49.1765 2.6
    endloop
  endfacet
  facet normal 0.980815 0.19494 0
    outer loop
      vertex 51.2978 49.1765 0
      vertex 51.3743 48.7916 2.6
      vertex 51.3743 48.7916 0
    endloop
  endfacet
  facet normal -0.997853 -0.0654873 0
    outer loop
      vertex -51.3743 -48.7916 0
      vertex -51.4 -48.4 2.6
      vertex -51.4 -48.4 0
    endloop
  endfacet
  facet normal -0.997853 -0.0654873 0
    outer loop
      vertex -51.4 -48.4 2.6
      vertex -51.3743 -48.7916 0
      vertex -51.3743 -48.7916 2.6
    endloop
  endfacet
  facet normal 0.0654873 0.997853 -0
    outer loop
      vertex 48.7916 51.3743 0
      vertex 48.4 51.4 2.6
      vertex 48.7916 51.3743 2.6
    endloop
  endfacet
  facet normal 0.0654873 0.997853 0
    outer loop
      vertex 48.4 51.4 2.6
      vertex 48.7916 51.3743 0
      vertex 48.4 51.4 0
    endloop
  endfacet
  facet normal -0.44211 -0.896961 0
    outer loop
      vertex -49.9 -50.9981 0
      vertex -49.548 -51.1716 2.6
      vertex -49.9 -50.9981 2.6
    endloop
  endfacet
  facet normal -0.44211 -0.896961 -0
    outer loop
      vertex -49.548 -51.1716 2.6
      vertex -49.9 -50.9981 0
      vertex -49.548 -51.1716 0
    endloop
  endfacet
  facet normal 0.946858 0.321651 0
    outer loop
      vertex 51.2978 49.1765 2.6
      vertex 51.1716 49.548 0
      vertex 51.1716 49.548 2.6
    endloop
  endfacet
  facet normal 0.946858 0.321651 0
    outer loop
      vertex 51.1716 49.548 0
      vertex 51.2978 49.1765 2.6
      vertex 51.2978 49.1765 0
    endloop
  endfacet
  facet normal 0 1 -0
    outer loop
      vertex 48.4 51.4 0
      vertex 11 51.4 2.6
      vertex 48.4 51.4 2.6
    endloop
  endfacet
  facet normal 0 1 0
    outer loop
      vertex 11 51.4 2.6
      vertex 48.4 51.4 0
      vertex 11 51.4 0
    endloop
  endfacet
  facet normal 0 1 -0
    outer loop
      vertex -11 51.4 0
      vertex -48.4 51.4 2.6
      vertex -11 51.4 2.6
    endloop
  endfacet
  facet normal 0 1 0
    outer loop
      vertex -48.4 51.4 2.6
      vertex -11 51.4 0
      vertex -48.4 51.4 0
    endloop
  endfacet
  facet normal 0.321651 -0.946858 0
    outer loop
      vertex 49.1765 -51.2978 0
      vertex 49.548 -51.1716 2.6
      vertex 49.1765 -51.2978 2.6
    endloop
  endfacet
  facet normal 0.321651 -0.946858 0
    outer loop
      vertex 49.548 -51.1716 2.6
      vertex 49.1765 -51.2978 0
      vertex 49.548 -51.1716 0
    endloop
  endfacet
  facet normal -0.555523 0.831501 0
    outer loop
      vertex -49.9 50.9981 0
      vertex -50.2263 50.7801 2.6
      vertex -49.9 50.9981 2.6
    endloop
  endfacet
  facet normal -0.555523 0.831501 0
    outer loop
      vertex -50.2263 50.7801 2.6
      vertex -49.9 50.9981 0
      vertex -50.2263 50.7801 0
    endloop
  endfacet
  facet normal -0.659478 0.751724 0
    outer loop
      vertex -50.2263 50.7801 0
      vertex -50.5213 50.5213 2.6
      vertex -50.2263 50.7801 2.6
    endloop
  endfacet
  facet normal -0.659478 0.751724 0
    outer loop
      vertex -50.5213 50.5213 2.6
      vertex -50.2263 50.7801 0
      vertex -50.5213 50.5213 0
    endloop
  endfacet
  facet normal -0.321651 0.946858 0
    outer loop
      vertex -49.1765 51.2978 0
      vertex -49.548 51.1716 2.6
      vertex -49.1765 51.2978 2.6
    endloop
  endfacet
  facet normal -0.321651 0.946858 0
    outer loop
      vertex -49.548 51.1716 2.6
      vertex -49.1765 51.2978 0
      vertex -49.548 51.1716 0
    endloop
  endfacet
  facet normal 0.555523 -0.831501 0
    outer loop
      vertex 49.9 -50.9981 0
      vertex 50.2263 -50.7801 2.6
      vertex 49.9 -50.9981 2.6
    endloop
  endfacet
  facet normal 0.555523 -0.831501 0
    outer loop
      vertex 50.2263 -50.7801 2.6
      vertex 49.9 -50.9981 0
      vertex 50.2263 -50.7801 0
    endloop
  endfacet
  facet normal 0.44211 -0.896961 0
    outer loop
      vertex 49.548 -51.1716 0
      vertex 49.9 -50.9981 2.6
      vertex 49.548 -51.1716 2.6
    endloop
  endfacet
  facet normal 0.44211 -0.896961 0
    outer loop
      vertex 49.9 -50.9981 2.6
      vertex 49.548 -51.1716 0
      vertex 49.9 -50.9981 0
    endloop
  endfacet
  facet normal -0.831501 0.555523 0
    outer loop
      vertex -50.9981 49.9 0
      vertex -50.7801 50.2263 2.6
      vertex -50.7801 50.2263 0
    endloop
  endfacet
  facet normal -0.831501 0.555523 0
    outer loop
      vertex -50.7801 50.2263 2.6
      vertex -50.9981 49.9 0
      vertex -50.9981 49.9 2.6
    endloop
  endfacet
  facet normal 0.659478 -0.751724 0
    outer loop
      vertex 50.2263 -50.7801 0
      vertex 50.5213 -50.5213 2.6
      vertex 50.2263 -50.7801 2.6
    endloop
  endfacet
  facet normal 0.659478 -0.751724 0
    outer loop
      vertex 50.5213 -50.5213 2.6
      vertex 50.2263 -50.7801 0
      vertex 50.5213 -50.5213 0
    endloop
  endfacet
  facet normal -1 0 0
    outer loop
      vertex -51.4 -48.4 0
      vertex -51.4 48.4 2.6
      vertex -51.4 48.4 0
    endloop
  endfacet
  facet normal -1 -0 0
    outer loop
      vertex -51.4 48.4 2.6
      vertex -51.4 -48.4 0
      vertex -51.4 -48.4 2.6
    endloop
  endfacet
  facet normal -0.997853 0.0654873 0
    outer loop
      vertex -51.4 48.4 0
      vertex -51.3743 48.7916 2.6
      vertex -51.3743 48.7916 0
    endloop
  endfacet
  facet normal -0.997853 0.0654873 0
    outer loop
      vertex -51.3743 48.7916 2.6
      vertex -51.4 48.4 0
      vertex -51.4 48.4 2.6
    endloop
  endfacet
  facet normal -0.19494 0.980815 0
    outer loop
      vertex -48.7916 51.3743 0
      vertex -49.1765 51.2978 2.6
      vertex -48.7916 51.3743 2.6
    endloop
  endfacet
  facet normal -0.19494 0.980815 0
    outer loop
      vertex -49.1765 51.2978 2.6
      vertex -48.7916 51.3743 0
      vertex -49.1765 51.2978 0
    endloop
  endfacet
  facet normal 0.751724 0.659478 0
    outer loop
      vertex 50.7801 50.2263 2.6
      vertex 50.5213 50.5213 0
      vertex 50.5213 50.5213 2.6
    endloop
  endfacet
  facet normal 0.751724 0.659478 0
    outer loop
      vertex 50.5213 50.5213 0
      vertex 50.7801 50.2263 2.6
      vertex 50.7801 50.2263 0
    endloop
  endfacet
  facet normal 0 0 -1
    outer loop
      vertex 48.4 -51.4 0
      vertex 51.4 -48.4 0
      vertex 51.3743 -48.7916 0
    endloop
  endfacet
  facet normal 0 0 -1
    outer loop
      vertex 51.4 -48.4 0
      vertex 11 48.1 0
      vertex 51.4 48.4 0
    endloop
  endfacet
  facet normal 0 0 -1
    outer loop
      vertex 48.4 -51.4 0
      vertex 51.3743 -48.7916 0
      vertex 51.2978 -49.1765 0
    endloop
  endfacet
  facet normal 0 -0 -1
    outer loop
      vertex 48.4 51.4 0
      vertex 51.4 48.4 0
      vertex 11 48.1 0
    endloop
  endfacet
  facet normal 0 0 -1
    outer loop
      vertex 48.4 -51.4 0
      vertex 51.2978 -49.1765 0
      vertex 51.1716 -49.548 0
    endloop
  endfacet
  facet normal 0 0 -1
    outer loop
      vertex 51.4 48.4 0
      vertex 48.4 51.4 0
      vertex 51.3743 48.7916 0
    endloop
  endfacet
  facet normal 0 0 -1
    outer loop
      vertex 48.4 -51.4 0
      vertex 51.1716 -49.548 0
      vertex 50.9981 -49.9 0
    endloop
  endfacet
  facet normal 0 0 -1
    outer loop
      vertex 51.3743 48.7916 0
      vertex 48.4 51.4 0
      vertex 51.2978 49.1765 0
    endloop
  endfacet
  facet normal 0 0 -1
    outer loop
      vertex 48.4 -51.4 0
      vertex 50.9981 -49.9 0
      vertex 50.7801 -50.2263 0
    endloop
  endfacet
  facet normal 0 0 -1
    outer loop
      vertex 51.2978 49.1765 0
      vertex 48.4 51.4 0
      vertex 51.1716 49.548 0
    endloop
  endfacet
  facet normal 0 0 -1
    outer loop
      vertex 48.4 -51.4 0
      vertex 50.7801 -50.2263 0
      vertex 50.5213 -50.5213 0
    endloop
  endfacet
  facet normal 0 0 -1
    outer loop
      vertex 51.1716 49.548 0
      vertex 48.4 51.4 0
      vertex 50.9981 49.9 0
    endloop
  endfacet
  facet normal 0 0 -1
    outer loop
      vertex 48.4 -51.4 0
      vertex 50.5213 -50.5213 0
      vertex 50.2263 -50.7801 0
    endloop
  endfacet
  facet normal 0 0 -1
    outer loop
      vertex 50.9981 49.9 0
      vertex 48.4 51.4 0
      vertex 50.7801 50.2263 0
    endloop
  endfacet
  facet normal 0 0 -1
    outer loop
      vertex 48.4 -51.4 0
      vertex 50.2263 -50.7801 0
      vertex 49.9 -50.9981 0
    endloop
  endfacet
  facet normal -0 0 -1
    outer loop
      vertex 51.4 -48.4 0
      vertex 48.4 -51.4 0
      vertex 11 48.1 0
    endloop
  endfacet
  facet normal 0 0 -1
    outer loop
      vertex 48.4 -51.4 0
      vertex 49.9 -50.9981 0
      vertex 49.548 -51.1716 0
    endloop
  endfacet
  facet normal 0 0 -1
    outer loop
      vertex 50.7801 50.2263 0
      vertex 48.4 51.4 0
      vertex 50.5213 50.5213 0
    endloop
  endfacet
  facet normal 0 0 -1
    outer loop
      vertex 48.4 -51.4 0
      vertex 49.548 -51.1716 0
      vertex 49.1765 -51.2978 0
    endloop
  endfacet
  facet normal 0 0 -1
    outer loop
      vertex 50.2263 50.7801 0
      vertex 48.4 51.4 0
      vertex 49.9 50.9981 0
    endloop
  endfacet
  facet normal 0 0 -1
    outer loop
      vertex 48.4 -51.4 0
      vertex 49.1765 -51.2978 0
      vertex 48.7916 -51.3743 0
    endloop
  endfacet
  facet normal 0 0 -1
    outer loop
      vertex 49.9 50.9981 0
      vertex 48.4 51.4 0
      vertex 49.548 51.1716 0
    endloop
  endfacet
  facet normal 0 0 -1
    outer loop
      vertex 49.548 51.1716 0
      vertex 48.4 51.4 0
      vertex 49.1765 51.2978 0
    endloop
  endfacet
  facet normal 0 0 -1
    outer loop
      vertex 49.1765 51.2978 0
      vertex 48.4 51.4 0
      vertex 48.7916 51.3743 0
    endloop
  endfacet
  facet normal 0 0 -1
    outer loop
      vertex 50.5213 50.5213 0
      vertex 48.4 51.4 0
      vertex 50.2263 50.7801 0
    endloop
  endfacet
  facet normal 0 0 -1
    outer loop
      vertex 48.4 -51.4 0
      vertex -11 48.1 0
      vertex 11 48.1 0
    endloop
  endfacet
  facet normal 0 0 -1
    outer loop
      vertex -48.4 -51.4 0
      vertex -11 48.1 0
      vertex 48.4 -51.4 0
    endloop
  endfacet
  facet normal 0 0 -1
    outer loop
      vertex -51.4 -48.4 0
      vertex -11 48.1 0
      vertex -48.4 -51.4 0
    endloop
  endfacet
  facet normal 0 0 -1
    outer loop
      vertex -51.4 48.4 0
      vertex -11 48.1 0
      vertex -51.4 -48.4 0
    endloop
  endfacet
  facet normal 0 0 -1
    outer loop
      vertex -51.4 -48.4 0
      vertex -48.4 -51.4 0
      vertex -48.7916 -51.3743 0
    endloop
  endfacet
  facet normal 0 -0 -1
    outer loop
      vertex -48.4 51.4 0
      vertex -11 48.1 0
      vertex -51.4 48.4 0
    endloop
  endfacet
  facet normal 0 0 -1
    outer loop
      vertex -51.4 -48.4 0
      vertex -48.7916 -51.3743 0
      vertex -49.1765 -51.2978 0
    endloop
  endfacet
  facet normal 0 0 -1
    outer loop
      vertex -11 48.1 0
      vertex -48.4 51.4 0
      vertex -11 51.4 0
    endloop
  endfacet
  facet normal 0 0 -1
    outer loop
      vertex -51.4 -48.4 0
      vertex -49.1765 -51.2978 0
      vertex -49.548 -51.1716 0
    endloop
  endfacet
  facet normal 0 0 -1
    outer loop
      vertex -48.4 51.4 0
      vertex -51.4 48.4 0
      vertex -48.7916 51.3743 0
    endloop
  endfacet
  facet normal 0 0 -1
    outer loop
      vertex -51.4 -48.4 0
      vertex -49.548 -51.1716 0
      vertex -49.9 -50.9981 0
    endloop
  endfacet
  facet normal 0 0 -1
    outer loop
      vertex -48.7916 51.3743 0
      vertex -51.4 48.4 0
      vertex -49.1765 51.2978 0
    endloop
  endfacet
  facet normal 0 0 -1
    outer loop
      vertex -51.4 -48.4 0
      vertex -49.9 -50.9981 0
      vertex -50.2263 -50.7801 0
    endloop
  endfacet
  facet normal 0 0 -1
    outer loop
      vertex -49.1765 51.2978 0
      vertex -51.4 48.4 0
      vertex -49.548 51.1716 0
    endloop
  endfacet
  facet normal 0 0 -1
    outer loop
      vertex -51.4 -48.4 0
      vertex -50.2263 -50.7801 0
      vertex -50.5213 -50.5213 0
    endloop
  endfacet
  facet normal 0 0 -1
    outer loop
      vertex -49.548 51.1716 0
      vertex -51.4 48.4 0
      vertex -49.9 50.9981 0
    endloop
  endfacet
  facet normal 0 0 -1
    outer loop
      vertex -51.4 -48.4 0
      vertex -50.5213 -50.5213 0
      vertex -50.7801 -50.2263 0
    endloop
  endfacet
  facet normal 0 0 -1
    outer loop
      vertex -49.9 50.9981 0
      vertex -51.4 48.4 0
      vertex -50.2263 50.7801 0
    endloop
  endfacet
  facet normal 0 0 -1
    outer loop
      vertex -51.4 -48.4 0
      vertex -50.7801 -50.2263 0
      vertex -50.9981 -49.9 0
    endloop
  endfacet
  facet normal 0 0 -1
    outer loop
      vertex -50.2263 50.7801 0
      vertex -51.4 48.4 0
      vertex -50.5213 50.5213 0
    endloop
  endfacet
  facet normal 0 0 -1
    outer loop
      vertex -51.4 -48.4 0
      vertex -50.9981 -49.9 0
      vertex -51.1716 -49.548 0
    endloop
  endfacet
  facet normal 0 0 -1
    outer loop
      vertex -50.5213 50.5213 0
      vertex -51.4 48.4 0
      vertex -50.7801 50.2263 0
    endloop
  endfacet
  facet normal 0 0 -1
    outer loop
      vertex -51.4 -48.4 0
      vertex -51.1716 -49.548 0
      vertex -51.2978 -49.1765 0
    endloop
  endfacet
  facet normal 0 0 -1
    outer loop
      vertex -50.7801 50.2263 0
      vertex -51.4 48.4 0
      vertex -50.9981 49.9 0
    endloop
  endfacet
  facet normal 0 0 -1
    outer loop
      vertex -51.4 -48.4 0
      vertex -51.2978 -49.1765 0
      vertex -51.3743 -48.7916 0
    endloop
  endfacet
  facet normal 0 0 -1
    outer loop
      vertex -50.9981 49.9 0
      vertex -51.4 48.4 0
      vertex -51.1716 49.548 0
    endloop
  endfacet
  facet normal 0 0 -1
    outer loop
      vertex -51.1716 49.548 0
      vertex -51.4 48.4 0
      vertex -51.2978 49.1765 0
    endloop
  endfacet
  facet normal 0 0 -1
    outer loop
      vertex -51.2978 49.1765 0
      vertex -51.4 48.4 0
      vertex -51.3743 48.7916 0
    endloop
  endfacet
  facet normal -0 0 -1
    outer loop
      vertex 48.4 51.4 0
      vertex 11 48.1 0
      vertex 11 51.4 0
    endloop
  endfacet
  facet normal -0.751724 -0.659478 0
    outer loop
      vertex -50.5213 -50.5213 0
      vertex -50.7801 -50.2263 2.6
      vertex -50.7801 -50.2263 0
    endloop
  endfacet
  facet normal -0.751724 -0.659478 0
    outer loop
      vertex -50.7801 -50.2263 2.6
      vertex -50.5213 -50.5213 0
      vertex -50.5213 -50.5213 2.6
    endloop
  endfacet
  facet normal -0.555523 -0.831501 0
    outer loop
      vertex -50.2263 -50.7801 0
      vertex -49.9 -50.9981 2.6
      vertex -50.2263 -50.7801 2.6
    endloop
  endfacet
  facet normal -0.555523 -0.831501 -0
    outer loop
      vertex -49.9 -50.9981 2.6
      vertex -50.2263 -50.7801 0
      vertex -49.9 -50.9981 0
    endloop
  endfacet
  facet normal 0.831501 -0.555523 0
    outer loop
      vertex 50.7801 -50.2263 2.6
      vertex 50.9981 -49.9 0
      vertex 50.9981 -49.9 2.6
    endloop
  endfacet
  facet normal 0.831501 -0.555523 0
    outer loop
      vertex 50.9981 -49.9 0
      vertex 50.7801 -50.2263 2.6
      vertex 50.7801 -50.2263 0
    endloop
  endfacet
  facet normal -0.751724 0.659478 0
    outer loop
      vertex -50.7801 50.2263 0
      vertex -50.5213 50.5213 2.6
      vertex -50.5213 50.5213 0
    endloop
  endfacet
  facet normal -0.751724 0.659478 0
    outer loop
      vertex -50.5213 50.5213 2.6
      vertex -50.7801 50.2263 0
      vertex -50.7801 50.2263 2.6
    endloop
  endfacet
  facet normal 0.997853 -0.0654873 0
    outer loop
      vertex 51.3743 -48.7916 2.6
      vertex 51.4 -48.4 0
      vertex 51.4 -48.4 2.6
    endloop
  endfacet
  facet normal 0.997853 -0.0654873 0
    outer loop
      vertex 51.4 -48.4 0
      vertex 51.3743 -48.7916 2.6
      vertex 51.3743 -48.7916 0
    endloop
  endfacet
  facet normal 0.19494 -0.980815 0
    outer loop
      vertex 48.7916 -51.3743 0
      vertex 49.1765 -51.2978 2.6
      vertex 48.7916 -51.3743 2.6
    endloop
  endfacet
  facet normal 0.19494 -0.980815 0
    outer loop
      vertex 49.1765 -51.2978 2.6
      vertex 48.7916 -51.3743 0
      vertex 49.1765 -51.2978 0
    endloop
  endfacet
  facet normal -0.946858 0.321651 0
    outer loop
      vertex -51.2978 49.1765 0
      vertex -51.1716 49.548 2.6
      vertex -51.1716 49.548 0
    endloop
  endfacet
  facet normal -0.946858 0.321651 0
    outer loop
      vertex -51.1716 49.548 2.6
      vertex -51.2978 49.1765 0
      vertex -51.2978 49.1765 2.6
    endloop
  endfacet
  facet normal 0.831501 0.555523 0
    outer loop
      vertex 50.9981 49.9 2.6
      vertex 50.7801 50.2263 0
      vertex 50.7801 50.2263 2.6
    endloop
  endfacet
  facet normal 0.831501 0.555523 0
    outer loop
      vertex 50.7801 50.2263 0
      vertex 50.9981 49.9 2.6
      vertex 50.9981 49.9 0
    endloop
  endfacet
  facet normal 0.659478 0.751724 -0
    outer loop
      vertex 50.5213 50.5213 0
      vertex 50.2263 50.7801 2.6
      vertex 50.5213 50.5213 2.6
    endloop
  endfacet
  facet normal 0.659478 0.751724 0
    outer loop
      vertex 50.2263 50.7801 2.6
      vertex 50.5213 50.5213 0
      vertex 50.2263 50.7801 0
    endloop
  endfacet
  facet normal 0.896961 -0.44211 0
    outer loop
      vertex 50.9981 -49.9 2.6
      vertex 51.1716 -49.548 0
      vertex 51.1716 -49.548 2.6
    endloop
  endfacet
  facet normal 0.896961 -0.44211 0
    outer loop
      vertex 51.1716 -49.548 0
      vertex 50.9981 -49.9 2.6
      vertex 50.9981 -49.9 0
    endloop
  endfacet
  facet normal 0.980815 -0.19494 0
    outer loop
      vertex 51.2978 -49.1765 2.6
      vertex 51.3743 -48.7916 0
      vertex 51.3743 -48.7916 2.6
    endloop
  endfacet
  facet normal 0.980815 -0.19494 0
    outer loop
      vertex 51.3743 -48.7916 0
      vertex 51.2978 -49.1765 2.6
      vertex 51.2978 -49.1765 0
    endloop
  endfacet
  facet normal -0.831501 -0.555523 0
    outer loop
      vertex -50.7801 -50.2263 0
      vertex -50.9981 -49.9 2.6
      vertex -50.9981 -49.9 0
    endloop
  endfacet
  facet normal -0.831501 -0.555523 0
    outer loop
      vertex -50.9981 -49.9 2.6
      vertex -50.7801 -50.2263 0
      vertex -50.7801 -50.2263 2.6
    endloop
  endfacet
  facet normal -0.896961 0.44211 0
    outer loop
      vertex -51.1716 49.548 0
      vertex -50.9981 49.9 2.6
      vertex -50.9981 49.9 0
    endloop
  endfacet
  facet normal -0.896961 0.44211 0
    outer loop
      vertex -50.9981 49.9 2.6
      vertex -51.1716 49.548 0
      vertex -51.1716 49.548 2.6
    endloop
  endfacet
  facet normal -0.321651 -0.946858 0
    outer loop
      vertex -49.548 -51.1716 0
      vertex -49.1765 -51.2978 2.6
      vertex -49.548 -51.1716 2.6
    endloop
  endfacet
  facet normal -0.321651 -0.946858 -0
    outer loop
      vertex -49.1765 -51.2978 2.6
      vertex -49.548 -51.1716 0
      vertex -49.1765 -51.2978 0
    endloop
  endfacet
  facet normal -0.980815 -0.19494 0
    outer loop
      vertex -51.2978 -49.1765 0
      vertex -51.3743 -48.7916 2.6
      vertex -51.3743 -48.7916 0
    endloop
  endfacet
  facet normal -0.980815 -0.19494 0
    outer loop
      vertex -51.3743 -48.7916 2.6
      vertex -51.2978 -49.1765 0
      vertex -51.2978 -49.1765 2.6
    endloop
  endfacet
  facet normal -0.946858 -0.321651 0
    outer loop
      vertex -51.1716 -49.548 0
      vertex -51.2978 -49.1765 2.6
      vertex -51.2978 -49.1765 0
    endloop
  endfacet
  facet normal -0.946858 -0.321651 0
    outer loop
      vertex -51.2978 -49.1765 2.6
      vertex -51.1716 -49.548 0
      vertex -51.1716 -49.548 2.6
    endloop
  endfacet
  facet normal 0.946858 -0.321651 0
    outer loop
      vertex 51.1716 -49.548 2.6
      vertex 51.2978 -49.1765 0
      vertex 51.2978 -49.1765 2.6
    endloop
  endfacet
  facet normal 0.946858 -0.321651 0
    outer loop
      vertex 51.2978 -49.1765 0
      vertex 51.1716 -49.548 2.6
      vertex 51.1716 -49.548 0
    endloop
  endfacet
  facet normal -0.0654873 -0.997853 0
    outer loop
      vertex -48.7916 -51.3743 0
      vertex -48.4 -51.4 2.6
      vertex -48.7916 -51.3743 2.6
    endloop
  endfacet
  facet normal -0.0654873 -0.997853 -0
    outer loop
      vertex -48.4 -51.4 2.6
      vertex -48.7916 -51.3743 0
      vertex -48.4 -51.4 0
    endloop
  endfacet
  facet normal 0.896961 0.44211 0
    outer loop
      vertex 51.1716 49.548 2.6
      vertex 50.9981 49.9 0
      vertex 50.9981 49.9 2.6
    endloop
  endfacet
  facet normal 0.896961 0.44211 0
    outer loop
      vertex 50.9981 49.9 0
      vertex 51.1716 49.548 2.6
      vertex 51.1716 49.548 0
    endloop
  endfacet
  facet normal 0.0654873 -0.997853 0
    outer loop
      vertex 48.4 -51.4 0
      vertex 48.7916 -51.3743 2.6
      vertex 48.4 -51.4 2.6
    endloop
  endfacet
  facet normal 0.0654873 -0.997853 0
    outer loop
      vertex 48.7916 -51.3743 2.6
      vertex 48.4 -51.4 0
      vertex 48.7916 -51.3743 0
    endloop
  endfacet
  facet normal -0.659478 -0.751724 0
    outer loop
      vertex -50.5213 -50.5213 0
      vertex -50.2263 -50.7801 2.6
      vertex -50.5213 -50.5213 2.6
    endloop
  endfacet
  facet normal -0.659478 -0.751724 -0
    outer loop
      vertex -50.2263 -50.7801 2.6
      vertex -50.5213 -50.5213 0
      vertex -50.2263 -50.7801 0
    endloop
  endfacet
  facet normal 0.321651 0.946858 -0
    outer loop
      vertex 49.548 51.1716 0
      vertex 49.1765 51.2978 2.6
      vertex 49.548 51.1716 2.6
    endloop
  endfacet
  facet normal 0.321651 0.946858 0
    outer loop
      vertex 49.1765 51.2978 2.6
      vertex 49.548 51.1716 0
      vertex 49.1765 51.2978 0
    endloop
  endfacet
  facet normal 0.19494 0.980815 -0
    outer loop
      vertex 49.1765 51.2978 0
      vertex 48.7916 51.3743 2.6
      vertex 49.1765 51.2978 2.6
    endloop
  endfacet
  facet normal 0.19494 0.980815 0
    outer loop
      vertex 48.7916 51.3743 2.6
      vertex 49.1765 51.2978 0
      vertex 48.7916 51.3743 0
    endloop
  endfacet
  facet normal -0.19494 -0.980815 0
    outer loop
      vertex -49.1765 -51.2978 0
      vertex -48.7916 -51.3743 2.6
      vertex -49.1765 -51.2978 2.6
    endloop
  endfacet
  facet normal -0.19494 -0.980815 -0
    outer loop
      vertex -48.7916 -51.3743 2.6
      vertex -49.1765 -51.2978 0
      vertex -48.7916 -51.3743 0
    endloop
  endfacet
  facet normal -1 0 0
    outer loop
      vertex 11 48.1 0
      vertex 11 51.4 2.6
      vertex 11 51.4 0
    endloop
  endfacet
  facet normal -1 -0 0
    outer loop
      vertex 11 51.4 2.6
      vertex 11 48.1 0
      vertex 11 48.1 2.6
    endloop
  endfacet
  facet normal 1 -0 0
    outer loop
      vertex -11 48.1 2.6
      vertex -11 51.4 0
      vertex -11 51.4 2.6
    endloop
  endfacet
  facet normal 1 0 0
    outer loop
      vertex -11 51.4 0
      vertex -11 48.1 2.6
      vertex -11 48.1 0
    endloop
  endfacet
  facet normal 0 1 -0
    outer loop
      vertex 11 48.1 0
      vertex -11 48.1 2.6
      vertex 11 48.1 2.6
    endloop
  endfacet
  facet normal 0 1 0
    outer loop
      vertex -11 48.1 2.6
      vertex 11 48.1 0
      vertex -11 48.1 0
    endloop
  endfacet
endsolid OpenSCAD_Model
